<svg width="50" height="50" viewBox="0 0 50 50" fill="none" xmlns="http://www.w3.org/2000/svg">
<path d="M37.0583 12.024L32.2916 17.7083H19.727L14.9874 12.0083C14.725 11.651 14.5834 11.2193 14.5833 10.776V0H37.4999V10.7406C37.5001 11.2057 37.3446 11.6575 37.0583 12.024Z" fill="white"/>
<path d="M31.2499 0H20.8333V17.7083H31.2499V0Z" fill="white"/>
<path d="M32.3562 21.8751H19.7916C18.9628 21.8751 18.168 21.5458 17.5819 20.9598C16.9959 20.3737 16.6666 19.5789 16.6666 18.7501C16.6666 17.9213 16.9959 17.1264 17.5819 16.5404C18.168 15.9543 18.9628 15.6251 19.7916 15.6251H32.2916C32.7053 15.613 33.1171 15.6855 33.5017 15.8383C33.8863 15.9911 34.2356 16.2208 34.5283 16.5134C34.8209 16.8061 35.0506 17.1554 35.2034 17.54C35.3562 17.9246 35.4287 18.3364 35.4166 18.7501C35.4335 19.1595 35.3664 19.568 35.2194 19.9505C35.0724 20.333 34.8486 20.6814 34.5619 20.9741C34.2752 21.2669 33.9316 21.4978 33.5523 21.6528C33.1729 21.8077 32.7659 21.8834 32.3562 21.8751ZM19.8 17.7084C19.5237 17.7084 19.2587 17.8182 19.0634 18.0135C18.868 18.2089 18.7583 18.4738 18.7583 18.7501C18.7583 19.0263 18.868 19.2913 19.0634 19.4866C19.2587 19.682 19.5237 19.7917 19.8 19.7917H32.352C32.4888 19.8018 32.626 19.7812 32.7538 19.7315C32.8815 19.6818 32.9966 19.6042 33.0906 19.5045C33.1846 19.4047 33.2552 19.2852 33.2971 19.1547C33.3391 19.0242 33.3515 18.886 33.3333 18.7501C33.3466 18.6089 33.3283 18.4665 33.2799 18.3332C33.2314 18.1999 33.1539 18.0791 33.0531 17.9794C32.9522 17.8797 32.8304 17.8037 32.6966 17.7568C32.5627 17.71 32.4201 17.6934 32.2791 17.7084H19.8Z" fill="white"/>
<path d="M26.5625 19.7917C26.3864 19.7917 26.2156 19.8126 26.0416 19.8178C25.8677 19.823 25.6968 19.7917 25.5208 19.7917C21.5149 19.7917 17.6731 21.3831 14.8405 24.2157C12.008 27.0482 10.4166 30.89 10.4166 34.8959C10.4166 38.9018 12.008 42.7436 14.8405 45.5762C17.6731 48.4088 21.5149 50.0001 25.5208 50.0001C25.6968 50.0001 25.8677 49.9792 26.0416 49.974C26.2156 49.9688 26.3864 50.0001 26.5625 50.0001C30.5683 50.0001 34.4101 48.4088 37.2427 45.5762C40.0753 42.7436 41.6666 38.9018 41.6666 34.8959C41.6666 30.89 40.0753 27.0482 37.2427 24.2157C34.4101 21.3831 30.5683 19.7917 26.5625 19.7917Z" fill="white"/>
<path d="M25.5208 47.9167C32.712 47.9167 38.5417 42.087 38.5417 34.8958C38.5417 27.7046 32.712 21.875 25.5208 21.875C18.3296 21.875 12.5 27.7046 12.5 34.8958C12.5 42.087 18.3296 47.9167 25.5208 47.9167Z" fill="#0B0B0B"/>
<path d="M25.5208 45.8333C31.5614 45.8333 36.4583 40.9364 36.4583 34.8958C36.4583 28.8551 31.5614 23.9583 25.5208 23.9583C19.4801 23.9583 14.5833 28.8551 14.5833 34.8958C14.5833 40.9364 19.4801 45.8333 25.5208 45.8333Z" fill="white"/>
<path d="M26.0417 42.7084C25.7654 42.7084 25.5005 42.5986 25.3051 42.4033C25.1098 42.2079 25 41.943 25 41.6667V30.6677L22.6167 33.0875C22.5231 33.1939 22.4088 33.28 22.2808 33.3407C22.1529 33.4014 22.0138 33.4353 21.8723 33.4404C21.7307 33.4455 21.5896 33.4217 21.4576 33.3705C21.3256 33.3192 21.2054 33.2415 21.1044 33.1422C21.0033 33.0429 20.9237 32.9241 20.8701 32.7929C20.8166 32.6618 20.7904 32.5211 20.7932 32.3795C20.7959 32.2379 20.8274 32.0983 20.8859 31.9693C20.9444 31.8403 21.0286 31.7246 21.1333 31.6292L25.3 27.3969C25.4449 27.25 25.6302 27.1494 25.8323 27.1079C26.0345 27.0665 26.2444 27.086 26.4354 27.164C26.6265 27.242 26.7901 27.375 26.9054 27.5461C27.0208 27.7172 27.0827 27.9187 27.0833 28.125V41.6667C27.0833 41.943 26.9736 42.2079 26.7782 42.4033C26.5829 42.5986 26.3179 42.7084 26.0417 42.7084Z" fill="#0B0B0B"/>
</svg>
