<svg width="50" height="50" viewBox="0 0 50 50" fill="none" xmlns="http://www.w3.org/2000/svg">
<g clip-path="url(#clip0_49_32)">
<path d="M25 0C11.1959 0 0 11.1959 0 25C0 38.8041 11.2024 50 25 50C38.7976 50 50 38.7976 50 25C50 11.2024 38.8042 0 25 0ZM25 47.4635C12.6043 47.4635 2.60825 37.3957 2.60825 25.0717C2.60825 12.6761 12.6761 2.67998 25 2.67998C37.3957 2.67998 47.3918 12.7478 47.3918 25.0717C47.3918 37.3957 37.3957 47.4635 25 47.4635ZM24.0871 7.67476C23.8784 7.4661 23.735 7.11397 23.735 6.76185C23.735 6.40972 23.8784 6.0576 24.0871 5.84894C24.5827 5.35335 25.4239 5.35335 25.9194 5.84894C26.128 6.0576 26.2715 6.40972 26.2715 6.76185C26.2715 7.11397 26.128 7.4661 25.9194 7.67476C25.7107 7.88342 25.3586 8.02688 25.0065 8.02688C24.6479 8.09861 24.2958 7.95515 24.0871 7.67476ZM16.7645 8.30727C16.9731 8.51593 17.1166 8.86806 17.1166 9.22018C17.1166 9.5723 16.9731 9.92443 16.7645 10.1331C16.5558 10.3417 16.2037 10.4852 15.8516 10.4852C15.4994 10.4852 15.1473 10.3417 14.9386 10.1331C14.73 9.92443 14.5865 9.5723 14.5865 9.22018C14.5865 8.86806 14.73 8.51593 14.9386 8.30727C15.4278 7.81168 16.269 7.81168 16.7645 8.30727ZM10.0743 14.9974C10.283 15.206 10.4265 15.5582 10.4265 15.9103C10.4265 16.2624 10.283 16.6145 10.0743 16.8232C9.79395 17.0319 9.51356 17.1753 9.16144 17.1753C8.80931 17.1753 8.45719 17.0319 8.24853 16.8232C8.03987 16.6145 7.89641 16.2624 7.89641 15.9103C7.89641 15.5582 8.03987 15.206 8.24853 14.9974C8.73758 14.5018 9.57876 14.5018 10.0743 14.9974ZM8.03342 25.0652C8.03342 25.4173 7.88995 25.7694 7.68129 25.9781C7.4009 26.1868 7.12051 26.3302 6.76838 26.3302C6.41626 26.3302 6.13587 26.1868 5.85547 25.9781C5.64681 25.6977 5.50335 25.4173 5.50335 25.0652C5.50335 24.7131 5.64681 24.3609 5.85547 24.1523C6.35106 23.6567 7.19224 23.6567 7.68775 24.1523C7.88995 24.3609 8.03342 24.7131 8.03342 25.0652ZM10.0743 33.2355C10.283 33.4442 10.4265 33.7963 10.4265 34.1484C10.4265 34.5006 10.283 34.8527 10.0743 35.0614C9.86569 35.27 9.51356 35.4135 9.16144 35.4135C8.80931 35.4135 8.45719 35.27 8.24853 35.0614C8.03987 34.8527 7.89641 34.5006 7.89641 34.1484C7.89641 33.7963 8.03987 33.4442 8.24853 33.2355C8.73758 32.8117 9.57876 32.8117 10.0743 33.2355ZM16.7645 39.9257C16.9731 40.1343 17.1166 40.4864 17.1166 40.8386C17.1166 41.1907 16.9731 41.5428 16.7645 41.7515C16.5558 41.9601 16.2037 42.1036 15.8516 42.1036C15.4994 42.1036 15.1473 41.9601 14.9386 41.7515C14.73 41.5428 14.5865 41.1907 14.5865 40.8386C14.5865 40.4864 14.73 40.1343 14.9386 39.9257C15.4278 39.4366 16.269 39.5018 16.7645 39.9257ZM25.9194 42.3904C26.1281 42.5991 26.2716 42.9512 26.2716 43.3034C26.2716 43.6555 26.1281 43.9359 25.9194 44.2163C25.7108 44.4967 25.3587 44.5684 25.0065 44.5684C24.6544 44.5684 24.3023 44.4249 24.0936 44.2163C23.885 44.0076 23.7415 43.6555 23.7415 43.3034C23.7415 42.9512 23.885 42.5991 24.0936 42.3904C24.5827 41.9014 25.4239 41.9014 25.9194 42.3904ZM35.0743 39.9257C35.283 40.206 35.4265 40.4864 35.4265 40.8386C35.4265 41.1907 35.283 41.5428 35.0743 41.7515C34.794 41.9601 34.5136 42.1036 34.1614 42.1036C33.8093 42.1036 33.5289 41.9601 33.2485 41.7515C33.0399 41.4711 32.8964 41.1907 32.8964 40.8386C32.8964 40.4864 33.0399 40.1343 33.2485 39.9257C33.7376 39.4366 34.5788 39.4366 35.0743 39.9257ZM41.7645 33.2355C41.9731 33.5159 42.1166 33.7963 42.1166 34.1484C42.1166 34.5006 41.9731 34.8527 41.7645 35.0614C41.5558 35.27 41.2037 35.4135 40.8516 35.4135C40.4994 35.4135 40.1473 35.27 39.9386 35.0614C39.73 34.8527 39.5865 34.5006 39.5865 34.1484C39.5865 33.7963 39.73 33.4442 39.9386 33.2355C40.4278 32.8117 41.269 32.8117 41.7645 33.2355ZM44.5814 25.0652C44.5814 25.4173 44.4379 25.7694 44.2293 25.9781C44.0206 26.1868 43.6685 26.3302 43.3163 26.3302C42.9642 26.3302 42.6121 26.1868 42.4034 25.9781C42.1948 25.7694 42.0513 25.4173 42.0513 25.0652C42.0513 24.7131 42.1948 24.3609 42.4034 24.1523C42.899 23.6567 43.7402 23.6567 44.2357 24.1523C44.4379 24.3609 44.5814 24.7131 44.5814 25.0652ZM39.9322 16.8297C39.7235 16.621 39.5801 16.2689 39.5801 15.9167C39.5801 15.5646 39.7235 15.2125 39.9322 15.0038C40.4278 14.5083 41.269 14.5083 41.7645 15.0038C41.9731 15.2842 42.1166 15.5646 42.1166 15.9167C42.1166 16.2689 41.9731 16.621 41.7645 16.8297C41.5558 17.0383 41.2037 17.1818 40.8516 17.1818C40.493 17.2535 40.1409 17.11 39.9322 16.8297ZM35.0743 8.30727C35.283 8.51593 35.4265 8.86806 35.4265 9.22018C35.4265 9.5723 35.283 9.92443 35.0743 10.1331C34.794 10.3417 34.5136 10.4852 34.1614 10.4852C33.8093 10.4852 33.5289 10.3417 33.2485 10.1331C33.0399 9.92443 32.8964 9.5723 32.8964 9.22018C32.8964 8.86806 33.0399 8.51593 33.2485 8.30727C33.7376 7.81168 34.5788 7.81168 35.0743 8.30727ZM23.6633 25.0652V13.2368C23.6633 12.5326 24.2241 11.9718 24.9283 11.9718C25.6326 11.9718 26.1998 12.5326 26.1998 13.2368V23.7285H33.3138C34.0181 23.7285 34.5788 24.2893 34.5788 24.9935C34.5788 25.6978 34.0181 26.2586 33.3138 26.2586H25C24.2958 26.3368 23.6633 25.7694 23.6633 25.0652Z" fill="white"/>
</g>
<defs>
<clipPath id="clip0_49_32">
<rect width="50" height="50" fill="white"/>
</clipPath>
</defs>
</svg>
