<svg xmlns="http://www.w3.org/2000/svg" version="1.1" xmlns:xlink="http://www.w3.org/1999/xlink" xmlns:svgjs="http://svgjs.dev/svgjs" viewBox="0 0 11.790428739411546 2.209674698077091"><g transform="matrix(1,0,0,1,2.161646249487928,0.420735958153473)"><g><path d=" M 0.344970703125 0.2900390625 L 0.49658203125 0.2900390625 L 0.49658203125 0.48193359375 L 0.343505859375 0.48193359375 L 0.342041015625 0.802734375 Q 0.342041015625 0.83056640625 0.346435546875 0.8477783203125 Q 0.350830078125 0.864990234375 0.3592529296875 0.875244140625 Q 0.36767578125 0.885498046875 0.37939453125 0.88916015625 Q 0.39111328125 0.892822265625 0.406494140625 0.892822265625 Q 0.434326171875 0.892822265625 0.45556640625 0.8873291015625 Q 0.476806640625 0.8818359375 0.498046875 0.87451171875 L 0.529541015625 1.015869140625 Q 0.4921875 1.039306640625 0.4464111328125 1.05322265625 Q 0.400634765625 1.067138671875 0.337646484375 1.067138671875 Q 0.29296875 1.067138671875 0.2523193359375 1.0517578125 Q 0.211669921875 1.036376953125 0.180908203125 1.0052490234375 Q 0.150146484375 0.97412109375 0.1318359375 0.92724609375 Q 0.113525390625 0.88037109375 0.1142578125 0.818115234375 L 0.116455078125 0.48193359375 L 0.00732421875 0.48193359375 L 0.00732421875 0.2900390625 L 0.1171875 0.2900390625 L 0.11865234375 0.1083984375 L 0.346435546875 0 L 0.344970703125 0.2900390625 M 0.637939453125 0.66650390625 Q 0.637939453125 0.583740234375 0.66796875 0.51123046875 Q 0.697998046875 0.438720703125 0.75146484375 0.384521484375 Q 0.804931640625 0.330322265625 0.87890625 0.298828125 Q 0.952880859375 0.267333984375 1.04150390625 0.267333984375 Q 1.130126953125 0.267333984375 1.2044677734375 0.298828125 Q 1.27880859375 0.330322265625 1.332275390625 0.384521484375 Q 1.3857421875 0.438720703125 1.4154052734375 0.51123046875 Q 1.445068359375 0.583740234375 1.445068359375 0.66650390625 Q 1.445068359375 0.749267578125 1.4161376953125 0.8221435546875 Q 1.38720703125 0.89501953125 1.3341064453125 0.9495849609375 Q 1.281005859375 1.004150390625 1.2066650390625 1.03564453125 Q 1.13232421875 1.067138671875 1.04150390625 1.067138671875 Q 0.949951171875 1.067138671875 0.8756103515625 1.03564453125 Q 0.80126953125 1.004150390625 0.74853515625 0.949951171875 Q 0.69580078125 0.895751953125 0.6668701171875 0.8228759765625 Q 0.637939453125 0.75 0.637939453125 0.66650390625 M 0.85693359375 0.66650390625 Q 0.85693359375 0.709716796875 0.87158203125 0.7459716796875 Q 0.88623046875 0.7822265625 0.9114990234375 0.80859375 Q 0.936767578125 0.8349609375 0.9700927734375 0.849609375 Q 1.00341796875 0.8642578125 1.04150390625 0.8642578125 Q 1.080322265625 0.8642578125 1.1136474609375 0.8499755859375 Q 1.14697265625 0.835693359375 1.1715087890625 0.809326171875 Q 1.196044921875 0.782958984375 1.2099609375 0.7467041015625 Q 1.223876953125 0.71044921875 1.223876953125 0.66650390625 Q 1.223876953125 0.62109375 1.2099609375 0.58447265625 Q 1.196044921875 0.5478515625 1.1715087890625 0.522216796875 Q 1.14697265625 0.49658203125 1.1136474609375 0.4830322265625 Q 1.080322265625 0.469482421875 1.04150390625 0.47021484375 Q 1.00341796875 0.469482421875 0.9700927734375 0.4830322265625 Q 0.936767578125 0.49658203125 0.9114990234375 0.522216796875 Q 0.88623046875 0.5478515625 0.87158203125 0.58447265625 Q 0.85693359375 0.62109375 0.85693359375 0.66650390625 M 2.02587890625 0.2900390625 L 2.384765625 0.2900390625 L 2.384765625 0.84814453125 L 2.476318359375 0.84814453125 L 2.476318359375 1.048828125 L 2.15478515625 1.048828125 L 2.15478515625 0.984375 Q 2.115966796875 1.01953125 2.06396484375 1.03857421875 Q 2.011962890625 1.0576171875 1.94384765625 1.0576171875 Q 1.880859375 1.0576171875 1.8251953125 1.037841796875 Q 1.76953125 1.01806640625 1.7281494140625 0.9781494140625 Q 1.686767578125 0.938232421875 1.6629638671875 0.878173828125 Q 1.63916015625 0.818115234375 1.63916015625 0.73681640625 L 1.63916015625 0.49072265625 L 1.540283203125 0.49072265625 L 1.540283203125 0.2900390625 L 1.875732421875 0.2900390625 L 1.875732421875 0.73681640625 Q 1.875732421875 0.81298828125 1.91455078125 0.8507080078125 Q 1.953369140625 0.888427734375 2.015625 0.888427734375 Q 2.0595703125 0.888427734375 2.095458984375 0.861328125 Q 2.13134765625 0.834228515625 2.1474609375 0.7880859375 L 2.1474609375 0.49072265625 L 2.02587890625 0.49072265625 L 2.02587890625 0.2900390625 M 3.275390625 0.566162109375 L 3.069580078125 0.566162109375 L 3.069580078125 0.48779296875 Q 3.03955078125 0.48779296875 3.0146484375 0.4918212890625 Q 2.98974609375 0.495849609375 2.9710693359375 0.50537109375 Q 2.952392578125 0.514892578125 2.9395751953125 0.53173828125 Q 2.9267578125 0.548583984375 2.921630859375 0.573486328125 L 2.921630859375 0.84814453125 L 3.076171875 0.84814453125 L 3.076171875 1.048828125 L 2.5810546875 1.048828125 L 2.5810546875 0.84814453125 L 2.694580078125 0.84814453125 L 2.694580078125 0.49072265625 L 2.58251953125 0.49072265625 L 2.58251953125 0.2900390625 L 2.920166015625 0.2900390625 L 2.920166015625 0.343505859375 Q 2.952392578125 0.31787109375 2.99267578125 0.303955078125 Q 3.032958984375 0.2900390625 3.08056640625 0.2900390625 Q 3.12890625 0.2900390625 3.18017578125 0.290771484375 Q 3.2314453125 0.29150390625 3.275390625 0.29150390625 L 3.275390625 0.566162109375 M 4.165283203125 1.0078125 Q 4.1396484375 1.02392578125 4.118408203125 1.0352783203125 Q 4.09716796875 1.046630859375 4.075927734375 1.0535888671875 Q 4.0546875 1.060546875 4.031982421875 1.0638427734375 Q 4.00927734375 1.067138671875 3.982177734375 1.067138671875 Q 3.9140625 1.067138671875 3.8602294921875 1.0484619140625 Q 3.806396484375 1.02978515625 3.7694091796875 0.9971923828125 Q 3.732421875 0.964599609375 3.712646484375 0.9202880859375 Q 3.69287109375 0.8759765625 3.69287109375 0.823974609375 Q 3.69287109375 0.771240234375 3.7130126953125 0.7265625 Q 3.733154296875 0.681884765625 3.771240234375 0.6500244140625 Q 3.809326171875 0.6181640625 3.8646240234375 0.6002197265625 Q 3.919921875 0.582275390625 3.990966796875 0.582275390625 Q 4.04296875 0.582275390625 4.0858154296875 0.5877685546875 Q 4.128662109375 0.59326171875 4.165283203125 0.601318359375 L 4.165283203125 0.577880859375 Q 4.165283203125 0.54931640625 4.154296875 0.5284423828125 Q 4.143310546875 0.507568359375 4.12353515625 0.4940185546875 Q 4.103759765625 0.48046875 4.075927734375 0.4742431640625 Q 4.048095703125 0.468017578125 4.01513671875 0.468017578125 Q 3.9462890625 0.468017578125 3.8939208984375 0.4815673828125 Q 3.841552734375 0.4951171875 3.793212890625 0.520751953125 L 3.722900390625 0.378662109375 Q 3.797607421875 0.327392578125 3.8792724609375 0.30029296875 Q 3.9609375 0.273193359375 4.052490234375 0.273193359375 Q 4.12353515625 0.273193359375 4.1839599609375 0.2889404296875 Q 4.244384765625 0.3046875 4.28759765625 0.3402099609375 Q 4.330810546875 0.375732421875 4.3553466796875 0.432861328125 Q 4.3798828125 0.489990234375 4.3798828125 0.572021484375 L 4.3798828125 0.84814453125 L 4.481689453125 0.84814453125 L 4.481689453125 1.048828125 L 4.165283203125 1.048828125 L 4.165283203125 1.0078125 M 3.998291015625 0.894287109375 Q 4.05029296875 0.894287109375 4.0927734375 0.87744140625 Q 4.13525390625 0.860595703125 4.165283203125 0.83642578125 L 4.165283203125 0.73974609375 L 3.989501953125 0.73974609375 Q 3.97265625 0.73974609375 3.95654296875 0.744873046875 Q 3.9404296875 0.75 3.9276123046875 0.759521484375 Q 3.914794921875 0.76904296875 3.9071044921875 0.782958984375 Q 3.8994140625 0.796875 3.8994140625 0.815185546875 Q 3.8994140625 0.848876953125 3.9239501953125 0.87158203125 Q 3.948486328125 0.894287109375 3.998291015625 0.894287109375 M 5.19873046875 1.00927734375 Q 5.15771484375 1.03271484375 5.11669921875 1.04296875 Q 5.07568359375 1.05322265625 5.033203125 1.05322265625 Q 4.9453125 1.05322265625 4.871337890625 1.023193359375 Q 4.79736328125 0.9931640625 4.7435302734375 0.9400634765625 Q 4.689697265625 0.886962890625 4.65966796875 0.814453125 Q 4.629638671875 0.741943359375 4.629638671875 0.656982421875 Q 4.629638671875 0.5771484375 4.6585693359375 0.5064697265625 Q 4.6875 0.435791015625 4.739501953125 0.3826904296875 Q 4.79150390625 0.32958984375 4.864013671875 0.298828125 Q 4.9365234375 0.26806640625 5.021484375 0.267333984375 Q 5.073486328125 0.26806640625 5.1170654296875 0.2783203125 Q 5.16064453125 0.28857421875 5.19873046875 0.30615234375 L 5.19873046875 0.2900390625 L 5.420654296875 0.2900390625 L 5.420654296875 1.017333984375 Q 5.420654296875 1.11328125 5.3876953125 1.1832275390625 Q 5.354736328125 1.253173828125 5.2994384765625 1.2989501953125 Q 5.244140625 1.3447265625 5.1708984375 1.3670654296875 Q 5.09765625 1.389404296875 5.01708984375 1.389404296875 Q 4.91748046875 1.389404296875 4.8328857421875 1.3623046875 Q 4.748291015625 1.335205078125 4.682373046875 1.2890625 L 4.77392578125 1.12646484375 Q 4.824462890625 1.15869140625 4.8837890625 1.1773681640625 Q 4.943115234375 1.196044921875 5.015625 1.196044921875 Q 5.05517578125 1.196044921875 5.0885009765625 1.187255859375 Q 5.121826171875 1.178466796875 5.1463623046875 1.1575927734375 Q 5.1708984375 1.13671875 5.184814453125 1.1015625 Q 5.19873046875 1.06640625 5.19873046875 1.012939453125 L 5.19873046875 1.00927734375 M 5.04052734375 0.850341796875 Q 5.091796875 0.850341796875 5.1331787109375 0.8243408203125 Q 5.174560546875 0.79833984375 5.19873046875 0.755859375 L 5.2001953125 0.5712890625 Q 5.17529296875 0.525146484375 5.132080078125 0.498046875 Q 5.0888671875 0.470947265625 5.038330078125 0.47021484375 Q 5.00244140625 0.470947265625 4.968017578125 0.4844970703125 Q 4.93359375 0.498046875 4.9083251953125 0.52294921875 Q 4.883056640625 0.5478515625 4.868408203125 0.5819091796875 Q 4.853759765625 0.615966796875 4.853759765625 0.65771484375 Q 4.853759765625 0.70166015625 4.868408203125 0.737548828125 Q 4.883056640625 0.7734375 4.907958984375 0.79833984375 Q 4.932861328125 0.8232421875 4.9669189453125 0.8367919921875 Q 5.0009765625 0.850341796875 5.04052734375 0.850341796875 M 5.7802734375 0.717041015625 L 5.782470703125 0.73974609375 Q 5.79052734375 0.772705078125 5.8099365234375 0.797607421875 Q 5.829345703125 0.822509765625 5.855712890625 0.83935546875 Q 5.882080078125 0.856201171875 5.914306640625 0.8646240234375 Q 5.946533203125 0.873046875 5.9794921875 0.873046875 Q 6.012451171875 0.873046875 6.0421142578125 0.8690185546875 Q 6.07177734375 0.864990234375 6.099609375 0.8580322265625 Q 6.12744140625 0.85107421875 6.15380859375 0.8419189453125 Q 6.18017578125 0.832763671875 6.207275390625 0.822509765625 L 6.287841796875 0.97265625 Q 6.24609375 0.998291015625 6.2113037109375 1.0162353515625 Q 6.176513671875 1.0341796875 6.141357421875 1.0458984375 Q 6.106201171875 1.0576171875 6.066650390625 1.0631103515625 Q 6.027099609375 1.068603515625 5.974365234375 1.068603515625 Q 5.87548828125 1.068603515625 5.798583984375 1.0360107421875 Q 5.7216796875 1.00341796875 5.6693115234375 0.94775390625 Q 5.616943359375 0.89208984375 5.5894775390625 0.8173828125 Q 5.56201171875 0.74267578125 5.56201171875 0.6591796875 Q 5.56201171875 0.57568359375 5.5909423828125 0.50244140625 Q 5.619873046875 0.42919921875 5.672607421875 0.3746337890625 Q 5.725341796875 0.320068359375 5.798583984375 0.28857421875 Q 5.871826171875 0.257080078125 5.961181640625 0.257080078125 Q 6.050537109375 0.257080078125 6.1197509765625 0.2867431640625 Q 6.18896484375 0.31640625 6.236572265625 0.3687744140625 Q 6.2841796875 0.421142578125 6.309814453125 0.4918212890625 Q 6.33544921875 0.5625 6.337646484375 0.643798828125 Q 6.33984375 0.662109375 6.3402099609375 0.6800537109375 Q 6.340576171875 0.697998046875 6.339111328125 0.717041015625 L 5.7802734375 0.717041015625 M 5.955322265625 0.440185546875 Q 5.914306640625 0.440185546875 5.8853759765625 0.4500732421875 Q 5.8564453125 0.4599609375 5.836669921875 0.4771728515625 Q 5.81689453125 0.494384765625 5.80517578125 0.516357421875 Q 5.79345703125 0.538330078125 5.786865234375 0.5625 L 6.10400390625 0.5625 Q 6.098876953125 0.53759765625 6.08935546875 0.515625 Q 6.079833984375 0.49365234375 6.06298828125 0.476806640625 Q 6.046142578125 0.4599609375 6.0201416015625 0.4500732421875 Q 5.994140625 0.440185546875 5.955322265625 0.440185546875 M 7.0751953125 0.6123046875 Q 7.0751953125 0.548583984375 7.04150390625 0.5123291015625 Q 7.0078125 0.47607421875 6.9521484375 0.47607421875 Q 6.9140625 0.47607421875 6.875244140625 0.492919921875 Q 6.83642578125 0.509765625 6.7998046875 0.555908203125 L 6.7998046875 0.84814453125 L 6.9228515625 0.84814453125 L 6.9228515625 1.048828125 L 6.451171875 1.048828125 L 6.451171875 0.84814453125 L 6.5625 0.84814453125 L 6.5625 0.49072265625 L 6.45263671875 0.49072265625 L 6.45263671875 0.2900390625 L 6.79833984375 0.2900390625 L 6.79833984375 0.356689453125 Q 6.845947265625 0.3193359375 6.9049072265625 0.2977294921875 Q 6.9638671875 0.276123046875 7.029052734375 0.276123046875 Q 7.166015625 0.276123046875 7.239990234375 0.3526611328125 Q 7.31396484375 0.42919921875 7.31396484375 0.576416015625 L 7.31396484375 0.84814453125 L 7.421630859375 0.84814453125 L 7.421630859375 1.048828125 L 7.0751953125 1.048828125 L 7.0751953125 0.6123046875 M 8.088134765625 0.55224609375 Q 8.056640625 0.5126953125 8.017822265625 0.4925537109375 Q 7.97900390625 0.472412109375 7.92626953125 0.475341796875 Q 7.8837890625 0.472412109375 7.8489990234375 0.487060546875 Q 7.814208984375 0.501708984375 7.7889404296875 0.528076171875 Q 7.763671875 0.554443359375 7.749755859375 0.5906982421875 Q 7.73583984375 0.626953125 7.73583984375 0.67236328125 Q 7.73583984375 0.712646484375 7.75048828125 0.74853515625 Q 7.76513671875 0.784423828125 7.7904052734375 0.8104248046875 Q 7.815673828125 0.83642578125 7.8504638671875 0.85107421875 Q 7.88525390625 0.86572265625 7.92626953125 0.86865234375 Q 7.960693359375 0.86572265625 7.9888916015625 0.8543701171875 Q 8.01708984375 0.843017578125 8.0390625 0.8250732421875 Q 8.06103515625 0.80712890625 8.0767822265625 0.7847900390625 Q 8.092529296875 0.762451171875 8.101318359375 0.74267578125 L 8.302734375 0.79833984375 Q 8.290283203125 0.84228515625 8.2598876953125 0.889892578125 Q 8.2294921875 0.9375 8.1807861328125 0.9766845703125 Q 8.132080078125 1.015869140625 8.0650634765625 1.04150390625 Q 7.998046875 1.067138671875 7.912353515625 1.067138671875 Q 7.8251953125 1.067138671875 7.751953125 1.0352783203125 Q 7.6787109375 1.00341796875 7.6259765625 0.948486328125 Q 7.5732421875 0.8935546875 7.5435791015625 0.819580078125 Q 7.513916015625 0.74560546875 7.513916015625 0.66064453125 Q 7.513916015625 0.576416015625 7.5443115234375 0.5042724609375 Q 7.57470703125 0.43212890625 7.628173828125 0.3782958984375 Q 7.681640625 0.324462890625 7.7552490234375 0.29443359375 Q 7.828857421875 0.264404296875 7.915283203125 0.267333984375 Q 7.976806640625 0.264404296875 8.03466796875 0.28125 Q 8.092529296875 0.298095703125 8.14453125 0.331787109375 L 8.290283203125 0.331787109375 L 8.290283203125 0.55224609375 L 8.088134765625 0.55224609375 M 8.362060546875 0.2900390625 L 8.734130859375 0.2900390625 L 8.734130859375 0.49072265625 L 8.675537109375 0.49072265625 L 8.78466796875 0.77490234375 L 8.896728515625 0.49072265625 L 8.83154296875 0.49072265625 L 8.83154296875 0.2900390625 L 9.20361328125 0.2900390625 L 9.20361328125 0.49072265625 L 9.120849609375 0.49072265625 L 8.8271484375 1.193115234375 L 8.95751953125 1.193115234375 L 8.95751953125 1.393798828125 L 8.486572265625 1.393798828125 L 8.486572265625 1.193115234375 L 8.619140625 1.193115234375 L 8.67626953125 1.048828125 L 8.43896484375 0.49072265625 L 8.362060546875 0.49072265625 L 8.362060546875 0.2900390625" fill="#ffffff" fill-rule="nonzero"></path></g><g></g><g clip-path="url(#SvgjsClipPath1017)"><g clip-path="url(#abb6d96d9-a559-44d9-a464-ce8d42420c16389649e6-c1e3-4ed6-b1c8-3fb98fba53cd)"><path d=" M -0.5321138800768745 0.4464673516289506 L -0.7864670739951681 0.4515079543000869 L -0.9076753051828391 0.2925025083001564 L -0.8602205878615331 0.29155282953602923 C -0.8242350679223776 0.29083691785230265 -0.7952479499527128 0.268190731938502 -0.7957739258836141 0.24120524459476667 C -0.7963145122570402 0.21421975725103135 -0.826178256778207 0.19269857541165825 -0.8621637767173624 0.19338526621033472 L -0.9428718612256429 0.19500702533061334 C -0.9543822057077193 0.19516671585526293 -0.9657271214529584 0.19777136508035512 -0.9761544492976674 0.20264828677120547 L -1.1500917675581812 -0.025596046354854966 L -1.3049332374384774 -0.02255707430964817 L -1.0701726469462525 0.45714758511474946 L -1.3956786959614553 0.4635469589407138 C -1.4172144882433535 0.4639998826589898 -1.4375083929106238 0.46696580249157144 -1.4553477432336888 0.47193335295008254 L -1.5263398834628223 0.4759512246444665 L -1.6782300439530622 0.296812588845041 L -1.7665063376893095 0.2985366210629949 L -1.6582575690213424 0.5330926653598692 L -1.7572140962433884 0.7706584608169005 L -1.666702404800811 0.7688613763863213 L -1.5243236423943676 0.579510041261898 L -1.4530977350848333 0.5862162343808881 C -1.4334431090574047 0.5906722406577039 -1.4133134568116459 0.5926842244267827 -1.393165699847149 0.5922065158161515 L -1.0719697313768313 0.5858801942028123 L -1.2876344734888385 1.0744241713548548 L -1.132807614051067 1.0713413679820727 L -0.9657810351048937 0.8332642070366655 C -0.9545905533620664 0.8383163153872651 -0.9424059112989652 0.8407832060344667 -0.9301315553438139 0.8404817656440317 L -0.8494526917205836 0.8389038378513282 C -0.813452561338903 0.8381879261676015 -0.7844362224841882 0.8155271298112758 -0.7849621984150893 0.7885416424675405 C -0.7855027847885154 0.76151232379623 -0.8153957501947323 0.7400495837269571 -0.8513958805764128 0.7407362745256337 L -0.901597361092425 0.741729784617336 L -0.7882787688682718 0.5802551738306748 L -0.5296008839625683 0.5751561293894385 C -0.4576298440842572 0.5736950851369352 -0.39930495752432704 0.543626794420418 -0.40000625876552864 0.5082403026247888 C -0.40069294956420554 0.4728392003866346 -0.4601866715261387 0.4450647491465474 -0.5321138800768745 0.4464673516289506" fill="#ffffff" transform="matrix(1,0,0,1,0,0)" fill-rule="nonzero"></path></g></g></g><defs><clipPath id="SvgjsClipPath1017"><path d=" M -1.7665063376893095 -0.025596046354854907 h 1.3665063376893096 v 1.1000202177097098 h -1.3665063376893096 Z"></path></clipPath><clipPath id="abb6d96d9-a559-44d9-a464-ce8d42420c16389649e6-c1e3-4ed6-b1c8-3fb98fba53cd"><path d=" M -1.7665063376893095 1.0744241713548548 L -0.39999164832300393 1.0744241713548548 L -0.39999164832300393 -0.02559604635485515 L -1.7665063376893095 -0.02559604635485515 Z"></path></clipPath></defs></svg>