<svg width="20" height="21" viewBox="0 0 20 21" fill="none" xmlns="http://www.w3.org/2000/svg">
<g clip-path="url(#clip0_102_193)">
<mask id="mask0_102_193" style="mask-type:alpha" maskUnits="userSpaceOnUse" x="0" y="0" width="20" height="21">
<path d="M20 0.70459H3.05176e-05V20.7046H20V0.70459Z" fill="#D9D9D9"/>
</mask>
<g mask="url(#mask0_102_193)">
<path d="M3.33335 17.3713C2.87501 17.3713 2.48265 17.2081 2.15626 16.8817C1.82987 16.5553 1.66668 16.163 1.66668 15.7046V5.70463C1.66668 5.2463 1.82987 4.85394 2.15626 4.52755C2.48265 4.20116 2.87501 4.03796 3.33335 4.03796H16.6667C17.125 4.03796 17.5173 4.20116 17.8438 4.52755C18.1702 4.85394 18.3333 5.2463 18.3333 5.70463V15.7046C18.3333 16.163 18.1702 16.5553 17.8438 16.8817C17.5173 17.2081 17.125 17.3713 16.6667 17.3713H3.33335ZM10 11.538L3.33335 7.3713V15.7046H16.6667V7.3713L10 11.538ZM10 9.8713L16.6667 5.70463H3.33335L10 9.8713ZM3.33335 7.3713V5.70463V15.7046V7.3713Z" fill="white"/>
</g>
</g>
<defs>
<clipPath id="clip0_102_193">
<rect width="20" height="20" fill="white" transform="translate(3.05176e-05 0.70459)"/>
</clipPath>
</defs>
</svg>
