<svg width="50" height="50" viewBox="0 0 50 50" fill="none" xmlns="http://www.w3.org/2000/svg">
<g clip-path="url(#clip0_52_120)">
<path d="M21.0938 19.5312C20.9396 19.5337 20.7867 19.5601 20.6406 19.6094C20.7565 19.6609 20.8581 19.7398 20.9366 19.8393C21.0151 19.9389 21.0682 20.056 21.0914 20.1807C21.1145 20.3053 21.107 20.4337 21.0694 20.5548C21.0318 20.6759 20.9653 20.786 20.8757 20.8757C20.786 20.9653 20.6759 21.0318 20.5548 21.0694C20.4337 21.107 20.3053 21.1145 20.1807 21.0914C20.056 21.0682 19.9389 21.0151 19.8393 20.9366C19.7398 20.8581 19.6609 20.7565 19.6094 20.6406C19.5595 20.7866 19.5331 20.9395 19.5312 21.0938C19.5312 21.4028 19.6229 21.7049 19.7946 21.9618C19.9663 22.2188 20.2103 22.419 20.4958 22.5373C20.7813 22.6556 21.0955 22.6865 21.3986 22.6262C21.7017 22.5659 21.9801 22.4171 22.1986 22.1986C22.4171 21.9801 22.5659 21.7017 22.6262 21.3986C22.6865 21.0955 22.6556 20.7813 22.5373 20.4958C22.419 20.2103 22.2188 19.9663 21.9618 19.7946C21.7049 19.6229 21.4028 19.5312 21.0938 19.5312Z" fill="white"/>
<path d="M28.9062 19.5312C28.7495 19.533 28.5939 19.5594 28.4453 19.6094C28.5812 19.6704 28.6968 19.7691 28.7784 19.8936C28.8601 20.0182 28.9044 20.1636 28.9062 20.3125C28.9062 20.5197 28.8239 20.7184 28.6774 20.8649C28.5309 21.0114 28.3322 21.0938 28.125 21.0938C27.9769 21.0926 27.8322 21.0494 27.7077 20.9692C27.5832 20.889 27.4841 20.775 27.4219 20.6406C27.3719 20.7866 27.3456 20.9395 27.3438 21.0938C27.3438 21.4028 27.4354 21.7049 27.6071 21.9618C27.7788 22.2188 28.0228 22.419 28.3083 22.5373C28.5938 22.6556 28.908 22.6865 29.2111 22.6262C29.5142 22.5659 29.7926 22.4171 30.0111 22.1986C30.2296 21.9801 30.3784 21.7017 30.4387 21.3986C30.499 21.0955 30.4681 20.7813 30.3498 20.4958C30.2315 20.2103 30.0313 19.9663 29.7743 19.7946C29.5174 19.6229 29.2153 19.5312 28.9062 19.5312Z" fill="white"/>
<path d="M4.48437 39.8984C1.72655 40.8828 -7.94418e-06 42.0625 -7.94418e-06 43.75V47.6562C-7.94418e-06 48.2779 0.246922 48.874 0.686461 49.3135C1.126 49.7531 1.72214 50 2.34374 50H47.6562C48.2778 50 48.874 49.7531 49.3135 49.3135C49.7531 48.874 50 48.2779 50 47.6562V43.75C50 42.0625 48.2891 40.8828 45.5312 39.8984C50.4141 36.7188 50 29.6875 50 29.6328C49.988 29.4704 49.9256 29.3158 49.8214 29.1907C49.7172 29.0655 49.5766 28.976 49.4191 28.9347C49.2616 28.8934 49.0951 28.9023 48.9429 28.9603C48.7907 29.0182 48.6605 29.1222 48.5703 29.2578C48.5703 29.2578 47.1719 31.25 45.3125 31.25C42.0859 31.25 41.4062 25.7266 41.4062 21.0938C41.4062 6.70312 36.1875 0 25 0C13.8125 0 8.59374 6.70312 8.59374 21.0938C8.59374 25.7266 7.91405 31.25 4.68749 31.25C2.80468 31.25 1.4453 29.2734 1.43749 29.2578C1.3485 29.119 1.21787 29.012 1.06432 28.9519C0.910775 28.8919 0.742169 28.882 0.582639 28.9236C0.42311 28.9652 0.280835 29.0562 0.176179 29.1836C0.0715235 29.311 0.00985206 29.4682 -7.94418e-06 29.6328C-7.94418e-06 29.6875 -0.414071 36.7188 4.48437 39.8984ZM1.74999 32.5312C3.31249 35.0469 5.56249 36.3281 10.1641 36.3281C11.0251 36.3679 11.8846 36.2217 12.684 35.8995C13.4834 35.5773 14.2041 35.0867 14.7969 34.4609C15.952 33.059 16.6355 31.3285 16.75 29.5156C16.9609 29.7578 17.1797 30 17.4219 30.2422C17.6641 30.4844 17.7891 30.6172 17.9687 30.8125V36.4766C16.3285 37.0225 14.6492 37.443 12.9453 37.7344C10.9297 38.1562 8.65624 38.6406 6.59374 39.2188C3.28905 37.9375 2.14062 34.8438 1.74999 32.5312ZM31.4766 29.1328C31.2109 29.3984 30.9505 29.6797 30.6953 29.9766C29.4922 31.25 28.0156 32.8125 25 32.8125C21.9844 32.8125 20.5078 31.25 19.3203 29.9766C19.0547 29.6797 18.7943 29.3984 18.5391 29.1328C19.8342 29.8185 21.2205 30.3157 22.6562 30.6094C22.6914 30.9989 22.8715 31.3611 23.1608 31.6244C23.4501 31.8877 23.8276 32.0328 24.2187 32.0312H25.7812C26.1956 32.0312 26.5931 31.8666 26.8861 31.5736C27.1791 31.2806 27.3437 30.8832 27.3437 30.4688C27.3437 30.0543 27.1791 29.6569 26.8861 29.3639C26.5931 29.0709 26.1956 28.9062 25.7812 28.9062H24.2187C23.9151 28.9067 23.6182 28.9956 23.3643 29.1621C23.1104 29.3286 22.9105 29.5655 22.7891 29.8438C20.7508 29.3817 18.8201 28.5331 17.1016 27.3438C16.0078 25.5625 15.625 23.3438 15.625 19.5312V19.4453C20.6719 18.9922 27.3437 16.3906 30.7891 12.1641C31.9055 13.0405 32.8083 14.159 33.4295 15.4352C34.0506 16.7113 34.3739 18.1119 34.375 19.5312C34.375 24.6719 33.6953 26.9141 31.4766 29.1328ZM19.5312 36.7578V32.375C21.041 33.7003 22.9914 34.4136 25 34.375C27.0085 34.4136 28.959 33.7003 30.4687 32.375V38.2812C30.4687 39.7317 29.8926 41.1227 28.867 42.1482C27.8414 43.1738 26.4504 43.75 25 43.75C23.5496 43.75 22.1586 43.1738 21.133 42.1482C20.1074 41.1227 19.5312 39.7317 19.5312 38.2812V36.7578ZM48.4375 43.7891V47.6953C48.4375 47.9025 48.3552 48.1012 48.2087 48.2477C48.0622 48.3943 47.8634 48.4766 47.6562 48.4766H2.34374C2.13654 48.4766 1.93783 48.3943 1.79131 48.2477C1.6448 48.1012 1.56249 47.9025 1.56249 47.6953V43.75C1.56249 41.7266 9.14843 40.1328 13.2266 39.2812C15.3594 38.8359 16.8203 38.5 17.7969 38.2031H17.9219V38.2812C17.9219 40.1461 18.6627 41.9345 19.9813 43.2531C21.2999 44.5717 23.0883 45.3125 24.9531 45.3125C26.8179 45.3125 28.6063 44.5717 29.925 43.2531C31.2436 41.9345 31.9844 40.1461 31.9844 38.2812V38.1562H32.1094C33.0859 38.4688 34.5469 38.7891 36.6797 39.2344C40.8359 40.1328 48.4375 41.7266 48.4375 43.75V43.7891ZM43.4297 39.2656C41.3672 38.6875 39.0937 38.2031 37.0781 37.7812C35.3652 37.4782 33.678 37.0447 32.0312 36.4844V30.8125C32.2109 30.6172 32.3984 30.4219 32.5781 30.2422C32.7578 30.0625 33.0391 29.7578 33.2422 29.5234C33.3688 31.3326 34.054 33.0578 35.2031 34.4609C35.7968 35.0877 36.5187 35.579 37.3196 35.9012C38.1204 36.2234 38.9814 36.3691 39.8437 36.3281C44.4219 36.3281 46.6641 35.0625 48.2266 32.5781C47.8125 34.8828 46.6562 37.9609 43.4141 39.2266L43.4297 39.2656ZM10.1562 21.0938C10.1562 12 11.8516 1.5625 25 1.5625C31.9062 1.5625 39.8437 3.78125 39.8437 21.0938C39.8437 28.9062 41.6797 32.8125 45.3125 32.8125C46.0888 32.8015 46.8507 32.6003 47.5312 32.2266C46.0937 34.4688 44.0312 35.5469 39.8437 35.5469C39.0919 35.586 38.3405 35.4625 37.6408 35.1847C36.941 34.907 36.3094 34.4816 35.7891 33.9375C34.3516 32.375 34.0312 30.0312 33.9766 28.5859C35.4219 26.4609 35.9375 23.9141 35.9375 19.5312C35.9376 17.7328 35.4942 15.962 34.6466 14.3758C33.799 12.7896 32.5733 11.4369 31.0781 10.4375C30.9093 10.3245 30.7032 10.2818 30.5034 10.3182C30.3036 10.3547 30.1258 10.4675 30.0078 10.6328C26.8828 15.0312 19.8516 17.6641 14.8594 17.9375C14.6638 17.9367 14.475 18.0093 14.3304 18.1409C14.1857 18.2726 14.0957 18.4537 14.0781 18.6484C14.0781 18.9375 14.0781 19.2344 14.0781 19.5312C14.0781 23.9141 14.5859 26.4609 16.0391 28.5859C15.9844 30.0078 15.6641 32.3672 14.2266 33.9375C13.7044 34.4836 13.0703 34.9102 12.3677 35.1881C11.6651 35.4659 10.9106 35.5883 10.1562 35.5469C5.96093 35.5469 3.90624 34.4688 2.46874 32.2266C3.14932 32.6003 3.91114 32.8015 4.68749 32.8125C8.32812 32.8125 10.1562 28.9062 10.1562 21.0938Z" fill="white"/>
</g>
<defs>
<clipPath id="clip0_52_120">
<rect width="50" height="50" fill="white"/>
</clipPath>
</defs>
</svg>
