<svg width="22" height="20" viewBox="0 0 22 20" fill="none" xmlns="http://www.w3.org/2000/svg">
<path d="M20.8882 14.1656V16.8129C20.8893 17.0586 20.8322 17.3018 20.7207 17.527C20.6091 17.7522 20.4455 17.9543 20.2402 18.1204C20.035 18.2866 19.7927 18.4131 19.5289 18.4918C19.2651 18.5705 18.9855 18.5997 18.7082 18.5777C15.631 18.2826 12.6752 17.3547 10.0782 15.8687C7.66194 14.5138 5.61345 12.7062 4.07812 10.5742C2.38809 8.27219 1.33636 5.65126 1.00812 2.92373C0.983127 2.67972 1.01599 2.43379 1.10462 2.2016C1.19324 1.9694 1.33569 1.75604 1.52288 1.57508C1.71008 1.39413 1.93792 1.24955 2.19191 1.15056C2.44589 1.05157 2.72046 1.00031 2.99812 1.00009H5.99812C6.48342 0.995874 6.95391 1.14752 7.32188 1.42676C7.68985 1.706 7.93019 2.09379 7.99811 2.51783C8.12474 3.365 8.35957 4.19681 8.69812 4.99739C8.83266 5.31323 8.86178 5.65648 8.78202 5.98646C8.70227 6.31646 8.51698 6.61935 8.24811 6.85927L6.97812 7.97993C8.40167 10.1891 10.4746 12.0182 12.9782 13.2744L14.2482 12.1537C14.52 11.9165 14.8633 11.753 15.2373 11.6826C15.6112 11.6122 16.0002 11.6379 16.3582 11.7567C17.2654 12.0554 18.2081 12.2625 19.1682 12.3743C19.6539 12.4348 20.0976 12.6507 20.4147 12.981C20.7318 13.3113 20.9003 13.7328 20.8882 14.1656Z" stroke="white" stroke-width="2" stroke-linecap="round" stroke-linejoin="round"/>
</svg>
