<svg width="50" height="50" viewBox="0 0 50 50" fill="none" xmlns="http://www.w3.org/2000/svg">
<path d="M30.9961 18.2814L30.2344 23.0275C29.7461 25.5275 27.5391 27.3439 25 27.3439C22.4609 27.3439 20.2539 25.5275 19.7656 23.047L19.0039 18.2814C18.9258 17.754 18.4375 17.4025 17.9101 17.4806C17.3828 17.5587 17.0312 18.047 17.1094 18.5743L17.8906 23.379C18.5547 26.7775 21.543 29.2384 25 29.2384C28.457 29.2384 31.4453 26.7775 32.1289 23.34L32.8906 18.5743C32.9687 18.047 32.6172 17.5587 32.0898 17.4806C31.582 17.4025 31.0937 17.754 30.9961 18.2814Z" fill="white"/>
<path d="M14.7266 8.75L15.7813 15.3711C15.8203 15.6641 15.9961 15.8984 16.25 16.0547C16.5039 16.1914 16.7969 16.2305 17.0703 16.1133C19.5508 15.1758 22.2266 14.707 25 14.707C27.7734 14.707 30.4492 15.1758 32.9297 16.1133C33.0469 16.1523 33.1445 16.1719 33.2617 16.1719C33.4375 16.1719 33.5938 16.1328 33.75 16.0352C34.0039 15.8984 34.1602 15.6445 34.2188 15.3516L35.2734 8.73047C36.6406 8.45703 37.6758 7.24609 37.6758 5.80078C37.6758 4.90234 37.2656 4.04297 36.5625 3.47656C35.8594 2.91016 34.9414 2.69531 34.0234 2.89062C32.8711 3.14453 31.9531 4.10156 31.7383 5.27344C31.6016 6.03516 31.7773 6.81641 32.168 7.44141C31.4062 8.32031 30.7031 8.75 30.0977 8.69141C29.4922 8.65234 28.4961 8.10547 27.1875 5.85938C27.5195 5.50781 27.7734 5.07813 27.9102 4.60938C28.1445 3.76953 28.0273 2.87109 27.5391 2.07031C27.0508 1.25 26.0938 0.742188 24.9805 0.742188C23.8867 0.742188 22.9102 1.25 22.4219 2.07031C21.9336 2.87109 21.7969 3.78906 22.0508 4.60938C22.1875 5.07813 22.4414 5.50781 22.7734 5.85938C21.4844 8.10547 20.5078 8.65234 19.8828 8.69141C19.2773 8.75 18.5742 8.32031 17.8125 7.44141C18.2227 6.81641 18.3789 6.03516 18.2422 5.25391C18.0273 4.08203 17.1094 3.125 15.957 2.89062C15.0586 2.69531 14.1406 2.91016 13.418 3.47656C12.6953 4.04297 12.3047 4.90234 12.3047 5.80078C12.3242 7.26563 13.3594 8.47656 14.7266 8.75ZM33.6328 5.60547C33.7109 5.19531 34.043 4.84375 34.4531 4.76562C34.5508 4.74609 34.6289 4.74609 34.707 4.74609C35.0391 4.74609 35.2539 4.88281 35.3906 4.98047C35.6445 5.19531 35.8008 5.48828 35.8008 5.82031C35.8008 6.40625 35.3125 6.89453 34.7266 6.89453C34.6875 6.89453 34.6484 6.89453 34.6094 6.89453C34.4922 6.875 34.375 6.89453 34.2773 6.91406C34.2188 6.81641 34.1406 6.73828 34.0625 6.67969C33.7109 6.40625 33.5547 6.01563 33.6328 5.60547ZM24.082 3.06641C24.2188 2.83203 24.5898 2.67578 25 2.67578C25.4102 2.67578 25.7617 2.83203 25.918 3.06641C26.1328 3.41797 26.1914 3.76953 26.0938 4.08203C26.0156 4.375 25.8008 4.60938 25.5273 4.74609C25.293 4.86328 25.1172 5.05859 25.0391 5.3125C25.0195 5.37109 25 5.44922 25 5.52734C25 5.44922 24.9805 5.39063 24.9609 5.3125C24.8828 5.05859 24.707 4.86328 24.4727 4.74609C24.1992 4.60938 23.9844 4.35547 23.9062 4.08203C23.8086 3.76953 23.8867 3.39844 24.082 3.06641ZM20.0391 10.6055C21.7383 10.4688 23.3203 8.98438 24.8828 6.05469C24.9414 5.9375 24.9805 5.82031 25 5.68359C25.0195 5.80078 25.0391 5.9375 25.1172 6.05469C26.6797 8.98438 28.2617 10.4688 29.9609 10.6055C31.0937 10.6836 32.1875 10.1953 33.2812 9.0625L32.5 13.9258C30.1172 13.1641 27.5977 12.7734 25 12.7734C22.4023 12.7734 19.8828 13.1641 17.5 13.9258L16.7187 9.0625C17.8125 10.1953 18.9062 10.6836 20.0391 10.6055ZM14.6289 4.98047C14.7852 4.86328 15.0977 4.66797 15.5469 4.76562C15.957 4.84375 16.2891 5.19531 16.3672 5.60547C16.4453 6.01563 16.2891 6.42578 15.9766 6.66016C15.8984 6.71875 15.8203 6.81641 15.7617 6.89453C15.7031 6.875 15.625 6.875 15.5469 6.875C15.5078 6.875 15.4688 6.875 15.4102 6.875C15.3711 6.875 15.332 6.875 15.293 6.875C14.707 6.875 14.2188 6.38672 14.2188 5.80078C14.2383 5.48828 14.375 5.17578 14.6289 4.98047Z" fill="white"/>
<path d="M44.4922 47.0116L42.1289 35.9179C41.914 34.8827 41.1523 34.0233 40.1562 33.6718L32.5781 30.9764C32.2461 30.8593 31.875 30.9374 31.6015 31.1718L25 37.3632L18.3789 31.1913C18.125 30.9374 17.7344 30.8593 17.4023 30.996L9.8242 33.6913C8.82811 34.0429 8.06639 34.9022 7.85154 35.9374L5.48826 47.0311C5.37108 47.578 5.50779 48.1444 5.85936 48.5936C6.21092 49.0233 6.73826 49.2772 7.30467 49.2772H42.6562C43.2226 49.2772 43.75 49.0233 44.1015 48.5936C44.4531 48.1639 44.6094 47.5585 44.4922 47.0116ZM7.40233 47.3241L9.74608 36.3085C9.8242 35.9179 10.1172 35.5858 10.4883 35.4686L17.5195 32.9686L24.3554 39.3554C24.7265 39.7069 25.2929 39.7069 25.664 39.3554L32.5 32.9686L39.5312 35.4686C39.9023 35.6054 40.1953 35.9179 40.2734 36.3085L42.6172 47.3241H7.40233Z" fill="white"/>
</svg>
